<svg width="1723" height="233" viewBox="0 0 1723 233" fill="none" xmlns="http://www.w3.org/2000/svg">
<path d="M1681.36 83.0316C1675.24 83.0316 1669.31 85.5175 1663.58 90.4892C1658.03 95.2698 1652.87 101.867 1648.09 110.281C1643.5 118.503 1639.39 127.778 1635.75 138.104C1632.31 148.43 1629.63 159.138 1627.72 170.229C1625.81 181.32 1624.85 191.933 1624.85 202.067C1624.85 210.672 1626.19 216.983 1628.87 220.998C1631.74 225.014 1635.85 227.022 1641.2 227.022C1647.32 227.022 1653.15 224.632 1658.7 219.851C1664.44 214.879 1669.69 208.282 1674.47 200.06C1679.26 191.646 1683.37 182.276 1686.81 171.95C1690.25 161.624 1692.93 151.011 1694.84 140.111C1696.75 129.021 1697.71 118.312 1697.71 107.986C1697.71 99.1899 1696.37 92.8795 1693.69 89.0551C1691.02 85.0394 1686.9 83.0316 1681.36 83.0316ZM1600.19 187.726C1600.19 179.312 1601.33 170.133 1603.63 160.19C1605.92 150.246 1609.36 140.398 1613.95 130.646C1618.54 120.894 1624.09 112.002 1630.59 103.97C1637.28 95.9391 1645.03 89.5331 1653.82 84.7526C1662.62 79.7808 1672.37 77.2949 1683.08 77.2949C1694.94 77.2949 1704.4 81.0238 1711.48 88.4814C1718.74 95.7479 1722.38 107.03 1722.38 122.328C1722.38 130.742 1721.23 139.92 1718.93 149.864C1716.64 159.807 1713.2 169.655 1708.61 179.408C1704.02 189.16 1698.38 198.052 1691.68 206.083C1685.18 214.114 1677.53 220.616 1668.74 225.588C1659.94 230.368 1650.19 232.759 1639.48 232.759C1627.63 232.759 1618.06 229.03 1610.8 221.572C1603.72 214.114 1600.19 202.832 1600.19 187.726Z" fill="#FFF9F4"/>
<path d="M1561.82 29.1044C1562.77 24.1326 1565.26 19.8301 1569.28 16.1969C1573.48 12.5637 1577.98 10.7471 1582.76 10.7471C1587.73 10.7471 1591.55 12.5637 1594.23 16.1969C1597.1 19.8301 1598.06 24.1326 1597.1 29.1044C1596.14 34.0762 1593.56 38.3787 1589.35 42.0119C1585.34 45.6451 1580.85 47.4617 1575.87 47.4617C1571.09 47.4617 1567.27 45.6451 1564.4 42.0119C1561.72 38.3787 1560.86 34.0762 1561.82 29.1044ZM1552.93 105.689C1556.94 93.8331 1555.6 87.9053 1548.91 87.9053C1544.51 87.9053 1540.59 90.2955 1537.15 95.0761C1533.71 99.8566 1530.08 107.219 1526.25 117.162L1522.24 127.775H1516.79L1524.24 106.836C1527.11 98.8049 1530.55 92.6858 1534.57 88.4789C1538.58 84.272 1542.79 81.4037 1547.19 79.8739C1551.78 78.1529 1555.99 77.2924 1559.81 77.2924C1565.93 77.2924 1570.42 78.5354 1573.29 81.0212C1576.16 83.5071 1577.88 86.7579 1578.45 90.7736C1579.03 94.7893 1578.84 99.1874 1577.88 103.968C1576.93 108.557 1575.68 113.051 1574.15 117.449L1543.46 204.36C1541.55 209.905 1540.88 214.303 1541.45 217.554C1542.22 220.613 1544.42 222.143 1548.05 222.143C1551.87 222.143 1555.51 220.04 1558.95 215.833C1562.39 211.626 1566.22 203.977 1570.42 192.886L1574.44 182.273H1579.89L1572.43 203.212C1569.75 210.67 1566.5 216.598 1562.68 220.996C1558.85 225.203 1554.74 228.167 1550.35 229.888C1545.95 231.8 1541.55 232.756 1537.15 232.756C1528.93 232.756 1523.38 230.844 1520.51 227.019C1517.65 223.195 1516.59 218.223 1517.36 212.104C1518.12 205.985 1519.75 199.483 1522.24 192.599L1552.93 105.689Z" fill="#FFF9F4"/>
<path d="M1457.99 204.361C1456.65 208.759 1456.08 212.87 1456.27 216.695C1456.65 220.328 1458.94 222.144 1463.15 222.144C1466.97 222.144 1470.51 220.041 1473.76 215.834C1477.01 211.436 1480.46 203.787 1484.09 192.887L1487.53 182.274H1492.98L1486.38 203.213C1484.09 210.862 1481.03 216.886 1477.21 221.284C1473.38 225.491 1469.37 228.455 1465.16 230.176C1460.95 231.897 1456.94 232.757 1453.11 232.757C1441.64 232.757 1435.61 227.307 1435.04 216.408C1434.85 213.348 1435.04 209.81 1435.61 205.795C1436.38 201.779 1437.43 197.381 1438.77 192.6L1480.07 37.4236C1481.79 30.9221 1481.51 26.1415 1479.21 23.082C1476.92 20.0224 1471.09 18.4926 1461.72 18.4926L1463.44 12.4692C1473.95 12.2779 1483.23 11.2262 1491.26 9.31398C1499.29 7.21054 1506.94 4.34221 1514.21 0.708984L1457.99 204.361ZM1393.74 223.579C1398.52 223.579 1403.87 220.806 1409.8 215.26C1415.92 209.524 1422.04 201.875 1428.16 192.314C1434.47 182.561 1440.2 171.566 1445.37 159.328C1450.72 146.898 1454.93 134.086 1457.99 120.892L1453.68 151.87C1446.23 171.566 1438.77 187.342 1431.31 199.198C1424.05 211.053 1416.59 219.658 1408.94 225.013C1401.48 230.176 1393.64 232.757 1385.42 232.757C1379.49 232.757 1374.23 231.419 1369.64 228.741C1365.24 225.873 1361.8 221.666 1359.32 216.121C1356.83 210.575 1355.59 203.5 1355.59 194.895C1355.59 185.716 1357.02 175.869 1359.89 165.351C1362.95 154.643 1367.25 144.126 1372.8 133.8C1378.34 123.474 1384.94 114.104 1392.59 105.69C1400.43 97.085 1409.03 90.201 1418.4 85.038C1427.77 79.875 1437.72 77.2935 1448.24 77.2935C1452.63 77.2935 1456.74 79.0145 1460.57 82.4565C1464.39 85.7073 1466.5 90.679 1466.88 97.3718L1464.58 103.108C1463.82 96.2245 1461.91 91.3483 1458.85 88.48C1455.79 85.4204 1452.35 83.8907 1448.52 83.8907C1441.26 83.8907 1434.18 86.3765 1427.3 91.3483C1420.6 96.3201 1414.48 102.917 1408.94 111.14C1403.39 119.362 1398.52 128.541 1394.31 138.676C1390.1 148.619 1386.85 158.85 1384.56 169.367C1382.26 179.693 1381.12 189.445 1381.12 198.624C1381.12 207.038 1382.17 213.348 1384.27 217.555C1386.37 221.571 1389.53 223.579 1393.74 223.579Z" fill="#FFF9F4"/>
<path d="M1303.27 129.499C1296.39 148.621 1289.79 164.779 1283.48 177.973C1277.17 191.168 1270.86 201.781 1264.55 209.812C1258.43 217.843 1252.12 223.676 1245.62 227.309C1239.31 230.942 1232.71 232.759 1225.83 232.759C1217.42 232.759 1211.3 230.846 1207.47 227.022C1203.65 223.198 1201.74 218.034 1201.74 211.533C1201.74 205.031 1203.07 197.669 1205.75 189.447L1233.57 105.691C1235.49 99.9548 1236.16 95.5566 1235.58 92.4971C1235.01 89.4375 1232.81 87.9078 1228.99 87.9078C1225.35 87.9078 1221.72 89.9156 1218.09 93.9312C1214.64 97.9469 1210.91 105.691 1206.9 117.165L1203.17 127.778H1197.72L1204.89 106.839C1207.76 98.8074 1211.11 92.6883 1214.93 88.4814C1218.95 84.2745 1223.06 81.4062 1227.26 79.8764C1231.66 78.1554 1235.77 77.2949 1239.6 77.2949C1248.01 77.2949 1253.56 79.3027 1256.23 83.3184C1259.1 87.1429 1260.15 92.1146 1259.39 98.2338C1258.82 104.353 1257.38 110.759 1255.09 117.452L1227.84 199.486C1222.48 215.549 1224.59 223.58 1234.15 223.58C1238.74 223.58 1243.61 221.572 1248.78 217.556C1253.94 213.35 1259.2 207.422 1264.55 199.773C1269.91 191.933 1275.17 182.658 1280.33 171.95C1285.68 161.05 1290.75 149.003 1295.53 135.809C1300.5 122.423 1305 108.082 1309.01 92.7839L1303.27 129.499ZM1302.41 204.362C1301.08 209.525 1300.41 213.828 1300.41 217.27C1300.6 220.52 1302.61 222.146 1306.43 222.146C1310.64 222.146 1314.46 219.947 1317.9 215.549C1321.54 210.959 1325.17 203.406 1328.8 192.889L1332.53 182.276H1337.98L1330.81 203.215C1328.13 211.246 1324.79 217.365 1320.77 221.572C1316.95 225.779 1312.84 228.647 1308.44 230.177C1304.23 231.898 1300.12 232.759 1296.1 232.759C1293.04 232.759 1290.18 232.089 1287.5 230.751C1284.82 229.412 1282.81 227.5 1281.48 225.014C1279.95 221.763 1279.37 217.652 1279.75 212.68C1280.33 207.708 1281.67 201.016 1283.77 192.602L1311.88 81.3106C1316.66 81.1194 1321.25 80.7369 1325.65 80.1633C1330.24 79.5896 1334.35 78.6335 1337.98 77.2949L1302.41 204.362Z" fill="#FFF9F4"/>
<path d="M1200.61 81.3057L1199.75 87.0424H1110.54L1111.97 81.3057H1200.61ZM1127.75 204.357C1126.03 210.668 1126.41 215.257 1128.9 218.125C1131.57 220.802 1135.02 222.141 1139.22 222.141C1143.43 222.141 1147.64 220.324 1151.84 216.691C1156.24 213.058 1160.54 205.313 1164.75 193.458L1168.77 182.271H1174.22L1168.19 200.342C1163.99 212.771 1158.54 221.28 1151.84 225.87C1145.34 230.459 1137.69 232.754 1128.9 232.754C1121.06 232.754 1115.03 231.128 1110.83 227.878C1106.81 224.436 1104.42 219.655 1103.66 213.536C1102.89 207.417 1103.66 200.437 1105.95 192.597L1150.41 37.7071C1155 37.5158 1159.49 37.1334 1163.89 36.5597C1168.48 35.9861 1172.59 35.03 1176.22 33.6914L1127.75 204.357Z" fill="#FFF9F4"/>
<path d="M1099.44 23.6563C1097.52 28.6281 1094.94 35.8945 1091.69 45.4556C1088.63 54.8255 1085.57 67.0637 1082.51 82.1703H1076.78C1077.35 79.4932 1077.73 76.7204 1077.92 73.8521C1078.31 70.9838 1078.5 68.3067 1078.5 65.8208C1078.5 58.7456 1077.06 52.3396 1074.2 46.6029C1071.52 40.675 1067.22 35.9901 1061.29 32.5481C1055.36 28.9149 1047.52 27.0983 1037.77 27.0983C1026.29 27.0983 1016.73 30.0622 1009.08 35.9901C1001.44 41.918 997.611 51.0967 997.611 63.5261C997.611 70.7925 999.332 77.5809 1002.77 83.8913C1006.41 90.0104 1010.9 95.9383 1016.25 101.675C1021.8 107.22 1027.63 112.861 1033.75 118.598C1040.06 124.144 1045.89 129.88 1051.25 135.808C1056.79 141.736 1061.29 148.046 1064.73 154.739C1068.36 161.241 1070.18 168.507 1070.18 176.538C1070.18 186.482 1067.98 194.991 1063.58 202.067C1059.18 209.142 1053.45 214.974 1046.37 219.563C1039.3 223.962 1031.46 227.212 1022.85 229.316C1014.44 231.61 1006.02 232.758 997.611 232.758C989.962 232.758 983.556 231.993 978.393 230.463C973.23 229.125 968.927 227.404 965.485 225.3C962.043 223.197 959.175 221.284 956.88 219.563C954.777 217.842 952.769 216.695 950.857 216.121C949.136 215.548 947.702 215.261 946.554 215.261C944.069 215.261 941.965 216.599 940.244 219.277C938.714 221.762 936.898 225.587 934.794 230.75H929.058C930.779 226.543 932.595 221.667 934.507 216.121C936.42 210.576 938.523 203.501 940.818 194.896C943.112 186.1 945.694 175.104 948.562 161.91H954.299C953.534 165.926 952.865 169.846 952.291 173.67C951.717 177.303 951.526 181.128 951.717 185.143C952.291 198.147 956.307 208.377 963.764 215.835C971.222 223.292 982.791 227.021 998.471 227.021C1010.9 227.021 1021.04 224.153 1028.88 218.416C1036.72 212.679 1040.64 203.596 1040.64 191.167C1040.64 183.136 1039.01 175.965 1035.76 169.654C1032.7 163.344 1028.59 157.512 1023.43 152.158C1018.45 146.612 1013.1 141.258 1007.36 136.095C1001.82 130.932 996.463 125.578 991.3 120.032C986.329 114.296 982.217 107.985 978.967 101.101C975.907 94.2173 974.377 86.3772 974.377 77.5809C974.377 68.4023 976.194 60.3709 979.827 53.487C983.46 46.4117 988.241 40.5794 994.169 35.9901C1000.29 31.2095 1007.08 27.6719 1014.53 25.3773C1021.99 22.8914 1029.64 21.6484 1037.48 21.6484C1045.51 21.6484 1052.4 22.6045 1058.13 24.5168C1063.87 26.429 1069.41 29.4886 1074.77 33.6955C1077.06 35.4165 1078.98 36.755 1080.51 37.7111C1082.04 38.476 1083.28 38.8584 1084.23 38.8584C1086.91 38.8584 1090.07 33.791 1093.7 23.6563H1099.44Z" fill="#FFF9F4"/>
<path d="M774.201 232.003C759.126 232.003 746.122 228.676 735.189 222.021C724.324 215.298 715.938 205.927 710.03 193.908C704.19 181.821 701.271 167.764 701.271 151.739C701.271 135.713 704.19 121.589 710.03 109.366C715.938 97.0747 724.155 87.5 734.68 80.6415C745.273 73.7151 757.632 70.252 771.757 70.252C779.905 70.252 787.952 71.6101 795.897 74.3263C803.842 77.0425 811.074 81.4564 817.593 87.5679C824.112 93.6115 829.307 101.624 833.177 111.606C837.048 121.589 838.983 133.88 838.983 148.479V158.665H718.383V137.886H814.537C814.537 129.058 812.772 121.181 809.241 114.255C805.777 107.328 800.82 101.862 794.369 97.8556C787.986 93.8492 780.448 91.8459 771.757 91.8459C762.182 91.8459 753.897 94.2226 746.903 98.976C739.977 103.662 734.646 109.773 730.911 117.311C727.177 124.848 725.309 132.929 725.309 141.553V155.406C725.309 167.221 727.346 177.237 731.421 185.454C735.563 193.603 741.301 199.816 748.635 204.094C755.969 208.304 764.491 210.409 774.201 210.409C780.516 210.409 786.221 209.526 791.313 207.761C796.474 205.927 800.922 203.211 804.657 199.612C808.392 195.945 811.278 191.396 813.315 185.963L836.539 192.482C834.094 200.359 829.986 207.286 824.214 213.261C818.442 219.169 811.312 223.787 802.823 227.114C794.335 230.373 784.794 232.003 774.201 232.003Z" fill="#FFF9F4"/>
<path d="M640.537 228.743V72.2886H664.576V228.743H640.537ZM652.76 46.2129C648.075 46.2129 644.034 44.6171 640.639 41.4255C637.312 38.234 635.648 34.3973 635.648 29.9155C635.648 25.4337 637.312 21.5971 640.639 18.4055C644.034 15.2139 648.075 13.6182 652.76 13.6182C657.446 13.6182 661.452 15.2139 664.779 18.4055C668.175 21.5971 669.872 25.4337 669.872 29.9155C669.872 34.3973 668.175 38.234 664.779 41.4255C661.452 44.6171 657.446 46.2129 652.76 46.2129Z" fill="#FFF9F4"/>
<path d="M495.109 134.624V228.741H471.071V20.1348H495.109V96.7323H497.147C500.813 88.6515 506.314 82.2345 513.648 77.4811C521.049 72.6598 530.896 70.2491 543.187 70.2491C553.848 70.2491 563.185 72.3881 571.198 76.6662C579.211 80.8763 585.424 87.3613 589.838 96.1212C594.32 104.813 596.56 115.882 596.56 129.327V228.741H572.522V130.957C572.522 118.53 569.296 108.921 562.845 102.131C556.462 95.2723 547.6 91.8431 536.26 91.8431C528.383 91.8431 521.321 93.5068 515.074 96.8342C508.894 100.162 504.005 105.017 500.406 111.4C496.875 117.783 495.109 125.524 495.109 134.624Z" fill="#FFF9F4"/>
<path d="M374.407 232.003C359.739 232.003 347.109 228.54 336.515 221.614C325.922 214.687 317.773 205.146 312.069 192.991C306.365 180.836 303.513 166.95 303.513 151.331C303.513 135.441 306.433 121.419 312.273 109.264C318.181 97.0407 326.397 87.5 336.923 80.6415C347.516 73.7151 359.875 70.252 373.999 70.252C385 70.252 394.914 72.2891 403.742 76.3635C412.57 80.4378 419.802 86.1419 425.438 93.4757C431.074 100.809 434.571 109.366 435.929 119.144H411.891C410.057 112.014 405.983 105.699 399.668 100.198C393.42 94.6301 385 91.8459 374.407 91.8459C365.036 91.8459 356.819 94.2905 349.757 99.1797C342.763 104.001 337.296 110.826 333.358 119.653C329.487 128.413 327.552 138.701 327.552 150.516C327.552 162.604 329.453 173.129 333.256 182.093C337.126 191.056 342.559 198.016 349.553 202.973C356.615 207.931 364.9 210.409 374.407 210.409C380.654 210.409 386.324 209.323 391.417 207.15C396.51 204.977 400.822 201.853 404.353 197.779C407.884 193.704 410.397 188.815 411.891 183.111H435.929C434.571 192.346 431.21 200.665 425.845 208.066C420.549 215.4 413.52 221.24 404.76 225.586C396.069 229.864 385.951 232.003 374.407 232.003Z" fill="#FFF9F4"/>
<path d="M208.887 228.743V72.2884H232.111V95.9195H233.741C236.593 88.1783 241.754 81.897 249.223 77.0757C256.693 72.2544 265.113 69.8438 274.484 69.8438C276.25 69.8438 278.456 69.8777 281.105 69.9456C283.753 70.0135 285.756 70.1154 287.114 70.2512V94.6972C286.3 94.4935 284.432 94.1879 281.512 93.7805C278.66 93.3052 275.638 93.0675 272.447 93.0675C264.841 93.0675 258.051 94.6633 252.075 97.8548C246.167 100.978 241.482 105.324 238.019 110.893C234.623 116.393 232.926 122.674 232.926 129.737V228.743H208.887Z" fill="#FFF9F4"/>
<path d="M26.8658 228.741H0.382568L76.9801 20.1348H103.056L179.653 228.741H153.17L90.8329 53.1369H89.2031L26.8658 228.741ZM36.6442 147.254H143.392V169.663H36.6442V147.254Z" fill="#FFF9F4"/>
</svg>
