<svg width="69" height="16" viewBox="0 0 69 16" fill="none" xmlns="http://www.w3.org/2000/svg">
<path d="M7.74361 1.2546C7.33079 1.05199 6.83142 0.777477 6.23883 0.62715C5.31998 0.391856 4.54096 1.15003 3.98166 3.13042C3.96835 3.15656 3.96169 3.18271 3.95503 3.20885C3.95503 3.21539 3.94837 3.22192 3.94837 3.22846C3.93506 3.28075 3.92174 3.33957 3.90842 3.39186L1.27174 15.4899H1.66458C2.63669 15.4899 4.06822 15.3853 5.8926 14.9343H5.92589L5.44649 15.8036H0L0.925504 11.5553L1.83769 7.33303C1.83769 7.33303 1.83769 7.33303 1.83769 7.3265C2.13732 5.9997 2.41031 4.81669 2.47023 4.54872C2.47689 4.51604 2.48355 4.50297 2.48355 4.50297C2.48355 4.49643 2.48355 4.48989 2.48355 4.48989L2.51018 4.39186C2.51018 4.39186 2.5235 4.35918 2.53681 4.30035C2.53681 4.30035 2.54347 4.29382 2.54347 4.28728C2.55679 4.24806 2.5701 4.20231 2.59008 4.15656C2.65 3.96048 2.73656 3.68597 2.80315 3.54872C2.86307 3.418 2.92299 3.29382 2.98958 3.16963C3.24259 2.67944 3.56219 2.22846 3.92174 1.82976C4.05491 1.67944 4.19473 1.53565 4.33455 1.40493C5.45315 0.346105 6.83142 -0.196379 7.86345 0.065059C7.91006 0.0781309 7.96333 0.0912028 8.00994 0.104275C8.38946 0.24153 8.5426 0.718654 8.5426 0.718654C8.7823 1.72519 7.74361 1.2546 7.74361 1.2546Z" fill="#FFF9F4"/>
<path d="M14.5417 15.797H13.3033L12.7906 12.4114L12.6708 11.614H7.75028C7.73696 11.6402 7.72364 11.6598 7.71033 11.6859C7.54387 11.98 7.39739 12.2545 7.25756 12.5094L7.15769 12.6859L5.4465 15.797H4.88721C5.74613 14.431 6.53847 13.0192 7.4107 11.5225C7.49726 11.3722 7.58382 11.2219 7.67038 11.0715C7.82352 10.8101 7.97666 10.5421 8.13646 10.2741L12.471 2.92773H12.5243L13.8293 11.248L13.8759 11.5356L14.0157 12.4114L14.5417 15.797ZM12.6108 11.3003V11.2872L12.6042 11.2415L11.6587 4.98002L8.45606 10.3983C8.30292 10.6467 8.15643 10.9016 8.02327 11.1303C7.98998 11.1892 7.95669 11.248 7.92339 11.3003H12.6108Z" fill="#FFF9F4"/>
<path d="M15.5669 2.99316H19.8082C22.6646 2.99316 24.489 4.51604 24.489 6.96702C24.489 9.47029 22.6447 10.9605 19.8282 10.9605H16.8586V15.7971H15.5736V2.99316H15.5669ZM16.8519 4.02584V9.90166H19.7483C21.859 9.90166 23.144 8.79055 23.144 6.96702C23.144 5.17617 21.859 4.03238 19.7883 4.03238H16.8519V4.02584Z" fill="#FFF9F4"/>
<path d="M24.4824 9.41163C24.4824 5.34627 26.7862 2.78418 30.5015 2.78418C34.2169 2.78418 36.5206 5.34627 36.5206 9.41163C36.5206 13.477 34.2235 15.9999 30.5015 15.9999C26.7795 15.9999 24.4824 13.477 24.4824 9.41163ZM35.2023 9.41163C35.2023 6.0064 33.4378 3.87568 30.5015 3.87568C27.5652 3.87568 25.8008 5.98679 25.8008 9.41163C25.8008 12.8169 27.5652 14.9084 30.5015 14.9084C33.4378 14.9084 35.2023 12.7973 35.2023 9.41163Z" fill="#FFF9F4"/>
<path d="M36.7539 2.99316H38.5516L42.9461 13.0651L43.3456 14.1566L43.7318 13.0651L48.1263 2.99316H49.8708V15.7971H48.5857V4.43761L47.6469 6.90166L43.7718 15.7905H42.8329L38.9578 6.90166L38.039 4.4899V15.784H36.7539V2.99316Z" fill="#FFF9F4"/>
<path d="M50.6162 2.99316H54.8576C57.714 2.99316 59.5383 4.51604 59.5383 6.96702C59.5383 9.47029 57.694 10.9605 54.8775 10.9605H51.9079V15.7971H50.6229V2.99316H50.6162ZM51.9013 4.02584V9.90166H54.7976C56.9083 9.90166 58.1934 8.79055 58.1934 6.96702C58.1934 5.17617 56.9083 4.03238 54.8376 4.03238H51.9013V4.02584Z" fill="#FFF9F4"/>
<path d="M68.9998 12.2937C68.9998 14.6858 67.0223 15.9996 64.339 15.9996C61.5958 15.9996 59.7381 14.7773 59.2188 12.3068H60.5637C60.9632 13.98 62.3082 14.9015 64.359 14.9015C66.5229 14.9015 67.6748 13.9015 67.6748 12.4375C67.6748 8.03225 59.565 11.4375 59.565 6.14989C59.565 4.33943 61.0431 2.77734 63.8596 2.77734C66.3165 2.77734 68.2341 3.92767 68.6536 6.52244H67.2953C66.9091 4.6793 65.664 3.86885 63.8463 3.86885C61.9487 3.86885 60.89 4.7512 60.89 6.07146C60.89 10.2022 68.9998 6.88846 68.9998 12.2937Z" fill="#FFF9F4"/>
</svg>
