<svg width="177" height="31" viewBox="0 0 177 31" fill="none" xmlns="http://www.w3.org/2000/svg">
<circle cx="9.5" cy="15.5" r="9.5" fill="#246FA6"/>
<path d="M173.265 12.888C172.753 12.888 172.257 13.096 171.777 13.512C171.313 13.912 170.881 14.464 170.481 15.168C170.097 15.856 169.753 16.632 169.449 17.496C169.161 18.36 168.937 19.256 168.777 20.184C168.617 21.112 168.537 22 168.537 22.848C168.537 23.568 168.649 24.096 168.873 24.432C169.113 24.768 169.457 24.936 169.905 24.936C170.417 24.936 170.905 24.736 171.369 24.336C171.849 23.92 172.289 23.368 172.689 22.68C173.089 21.976 173.433 21.192 173.721 20.328C174.009 19.464 174.233 18.576 174.393 17.664C174.553 16.736 174.633 15.84 174.633 14.976C174.633 14.24 174.521 13.712 174.297 13.392C174.073 13.056 173.729 12.888 173.265 12.888ZM166.473 21.648C166.473 20.944 166.569 20.176 166.761 19.344C166.953 18.512 167.241 17.688 167.625 16.872C168.009 16.056 168.473 15.312 169.017 14.64C169.577 13.968 170.225 13.432 170.961 13.032C171.697 12.616 172.513 12.408 173.409 12.408C174.401 12.408 175.193 12.72 175.785 13.344C176.393 13.952 176.697 14.896 176.697 16.176C176.697 16.88 176.601 17.648 176.409 18.48C176.217 19.312 175.929 20.136 175.545 20.952C175.161 21.768 174.689 22.512 174.129 23.184C173.585 23.856 172.945 24.4 172.209 24.816C171.473 25.216 170.657 25.416 169.761 25.416C168.769 25.416 167.969 25.104 167.361 24.48C166.769 23.856 166.473 22.912 166.473 21.648Z" fill="#FFF9F4"/>
<path d="M163.263 8.376C163.343 7.96 163.551 7.6 163.887 7.296C164.239 6.992 164.615 6.84 165.015 6.84C165.431 6.84 165.751 6.992 165.975 7.296C166.215 7.6 166.295 7.96 166.215 8.376C166.135 8.792 165.919 9.152 165.567 9.456C165.231 9.76 164.855 9.912 164.439 9.912C164.039 9.912 163.719 9.76 163.479 9.456C163.255 9.152 163.183 8.792 163.263 8.376ZM162.519 14.784C162.855 13.792 162.743 13.296 162.183 13.296C161.815 13.296 161.487 13.496 161.199 13.896C160.911 14.296 160.607 14.912 160.287 15.744L159.951 16.632H159.495L160.119 14.88C160.359 14.208 160.647 13.696 160.983 13.344C161.319 12.992 161.671 12.752 162.039 12.624C162.423 12.48 162.775 12.408 163.095 12.408C163.607 12.408 163.983 12.512 164.223 12.72C164.463 12.928 164.607 13.2 164.655 13.536C164.703 13.872 164.687 14.24 164.607 14.64C164.527 15.024 164.423 15.4 164.295 15.768L161.727 23.04C161.567 23.504 161.511 23.872 161.559 24.144C161.623 24.4 161.807 24.528 162.111 24.528C162.431 24.528 162.735 24.352 163.023 24C163.311 23.648 163.631 23.008 163.983 22.08L164.319 21.192H164.775L164.151 22.944C163.927 23.568 163.655 24.064 163.335 24.432C163.015 24.784 162.671 25.032 162.303 25.176C161.935 25.336 161.567 25.416 161.199 25.416C160.511 25.416 160.047 25.256 159.807 24.936C159.567 24.616 159.479 24.2 159.543 23.688C159.607 23.176 159.743 22.632 159.951 22.056L162.519 14.784Z" fill="#FFF9F4"/>
<path d="M154.575 23.04C154.463 23.408 154.415 23.752 154.431 24.072C154.463 24.376 154.655 24.528 155.007 24.528C155.327 24.528 155.623 24.352 155.895 24C156.167 23.632 156.455 22.992 156.759 22.08L157.047 21.192H157.503L156.951 22.944C156.759 23.584 156.503 24.088 156.183 24.456C155.863 24.808 155.527 25.056 155.175 25.2C154.823 25.344 154.487 25.416 154.167 25.416C153.207 25.416 152.703 24.96 152.655 24.048C152.639 23.792 152.655 23.496 152.703 23.16C152.767 22.824 152.855 22.456 152.967 22.056L156.423 9.072C156.567 8.528 156.543 8.128 156.351 7.872C156.159 7.616 155.671 7.488 154.887 7.488L155.031 6.984C155.911 6.968 156.687 6.88 157.359 6.72C158.031 6.544 158.671 6.304 159.279 6L154.575 23.04ZM149.199 24.648C149.599 24.648 150.047 24.416 150.543 23.952C151.055 23.472 151.567 22.832 152.079 22.032C152.607 21.216 153.087 20.296 153.519 19.272C153.967 18.232 154.319 17.16 154.575 16.056L154.215 18.648C153.591 20.296 152.967 21.616 152.343 22.608C151.735 23.6 151.111 24.32 150.471 24.768C149.847 25.2 149.191 25.416 148.503 25.416C148.007 25.416 147.567 25.304 147.183 25.08C146.815 24.84 146.527 24.488 146.319 24.024C146.111 23.56 146.007 22.968 146.007 22.248C146.007 21.48 146.127 20.656 146.367 19.776C146.623 18.88 146.983 18 147.447 17.136C147.911 16.272 148.463 15.488 149.103 14.784C149.759 14.064 150.479 13.488 151.263 13.056C152.047 12.624 152.879 12.408 153.759 12.408C154.127 12.408 154.471 12.552 154.791 12.84C155.111 13.112 155.287 13.528 155.319 14.088L155.127 14.568C155.063 13.992 154.903 13.584 154.647 13.344C154.391 13.088 154.103 12.96 153.783 12.96C153.175 12.96 152.583 13.168 152.007 13.584C151.447 14 150.935 14.552 150.471 15.24C150.007 15.928 149.599 16.696 149.247 17.544C148.895 18.376 148.623 19.232 148.431 20.112C148.239 20.976 148.143 21.792 148.143 22.56C148.143 23.264 148.231 23.792 148.407 24.144C148.583 24.48 148.847 24.648 149.199 24.648Z" fill="#FFF9F4"/>
<path d="M141.63 16.776C141.054 18.376 140.502 19.728 139.974 20.832C139.446 21.936 138.918 22.824 138.39 23.496C137.878 24.168 137.35 24.656 136.806 24.96C136.278 25.264 135.726 25.416 135.15 25.416C134.446 25.416 133.934 25.256 133.614 24.936C133.294 24.616 133.134 24.184 133.134 23.64C133.134 23.096 133.246 22.48 133.47 21.792L135.798 14.784C135.958 14.304 136.014 13.936 135.966 13.68C135.918 13.424 135.734 13.296 135.414 13.296C135.11 13.296 134.806 13.464 134.502 13.8C134.214 14.136 133.902 14.784 133.566 15.744L133.254 16.632H132.798L133.398 14.88C133.638 14.208 133.918 13.696 134.238 13.344C134.574 12.992 134.918 12.752 135.27 12.624C135.638 12.48 135.982 12.408 136.302 12.408C137.006 12.408 137.47 12.576 137.694 12.912C137.934 13.232 138.022 13.648 137.958 14.16C137.91 14.672 137.79 15.208 137.598 15.768L135.318 22.632C134.87 23.976 135.046 24.648 135.846 24.648C136.23 24.648 136.638 24.48 137.07 24.144C137.502 23.792 137.942 23.296 138.39 22.656C138.838 22 139.278 21.224 139.71 20.328C140.158 19.416 140.582 18.408 140.982 17.304C141.398 16.184 141.774 14.984 142.11 13.704L141.63 16.776ZM141.558 23.04C141.446 23.472 141.39 23.832 141.39 24.12C141.406 24.392 141.574 24.528 141.894 24.528C142.246 24.528 142.566 24.344 142.854 23.976C143.158 23.592 143.462 22.96 143.766 22.08L144.078 21.192H144.534L143.934 22.944C143.71 23.616 143.43 24.128 143.094 24.48C142.774 24.832 142.43 25.072 142.062 25.2C141.71 25.344 141.366 25.416 141.03 25.416C140.774 25.416 140.534 25.36 140.31 25.248C140.086 25.136 139.918 24.976 139.806 24.768C139.678 24.496 139.63 24.152 139.662 23.736C139.71 23.32 139.822 22.76 139.998 22.056L142.35 12.744C142.75 12.728 143.134 12.696 143.502 12.648C143.886 12.6 144.23 12.52 144.534 12.408L141.558 23.04Z" fill="#FFF9F4"/>
<path d="M133.039 12.744L132.967 13.224H125.503L125.623 12.744H133.039ZM126.943 23.04C126.799 23.568 126.831 23.952 127.039 24.192C127.263 24.416 127.551 24.528 127.903 24.528C128.255 24.528 128.607 24.376 128.959 24.072C129.327 23.768 129.687 23.12 130.039 22.128L130.375 21.192H130.831L130.327 22.704C129.975 23.744 129.519 24.456 128.959 24.84C128.415 25.224 127.775 25.416 127.039 25.416C126.383 25.416 125.879 25.28 125.527 25.008C125.191 24.72 124.991 24.32 124.927 23.808C124.863 23.296 124.927 22.712 125.119 22.056L128.839 9.09601C129.223 9.08001 129.599 9.04801 129.967 9.00001C130.351 8.95201 130.695 8.87201 130.999 8.76001L126.943 23.04Z" fill="#FFF9F4"/>
<path d="M124.574 7.92001C124.414 8.33601 124.198 8.94401 123.926 9.74401C123.67 10.528 123.414 11.552 123.158 12.816H122.678C122.726 12.592 122.758 12.36 122.774 12.12C122.806 11.88 122.822 11.656 122.822 11.448C122.822 10.856 122.702 10.32 122.462 9.84001C122.238 9.34401 121.878 8.95201 121.382 8.66401C120.886 8.36001 120.23 8.20802 119.414 8.20802C118.454 8.20802 117.654 8.45601 117.014 8.95201C116.374 9.44801 116.054 10.216 116.054 11.256C116.054 11.864 116.198 12.432 116.486 12.96C116.79 13.472 117.166 13.968 117.614 14.448C118.078 14.912 118.566 15.384 119.078 15.864C119.606 16.328 120.094 16.808 120.542 17.304C121.006 17.8 121.382 18.328 121.67 18.888C121.974 19.432 122.126 20.04 122.126 20.712C122.126 21.544 121.942 22.256 121.574 22.848C121.206 23.44 120.726 23.928 120.134 24.312C119.542 24.68 118.886 24.952 118.166 25.128C117.462 25.32 116.758 25.416 116.054 25.416C115.414 25.416 114.878 25.352 114.446 25.224C114.014 25.112 113.654 24.968 113.366 24.792C113.078 24.616 112.838 24.456 112.646 24.312C112.47 24.168 112.302 24.072 112.142 24.024C111.998 23.976 111.878 23.952 111.782 23.952C111.574 23.952 111.398 24.064 111.254 24.288C111.126 24.496 110.974 24.816 110.798 25.248H110.318C110.462 24.896 110.614 24.488 110.774 24.024C110.934 23.56 111.11 22.968 111.302 22.248C111.494 21.512 111.71 20.592 111.95 19.488H112.43C112.366 19.824 112.31 20.152 112.262 20.472C112.214 20.776 112.198 21.096 112.214 21.432C112.262 22.52 112.598 23.376 113.222 24C113.846 24.624 114.814 24.936 116.126 24.936C117.166 24.936 118.014 24.696 118.67 24.216C119.326 23.736 119.654 22.976 119.654 21.936C119.654 21.264 119.518 20.664 119.246 20.136C118.99 19.608 118.646 19.12 118.214 18.672C117.798 18.208 117.35 17.76 116.87 17.328C116.406 16.896 115.958 16.448 115.526 15.984C115.11 15.504 114.766 14.976 114.494 14.4C114.238 13.824 114.11 13.168 114.11 12.432C114.11 11.664 114.262 10.992 114.566 10.416C114.87 9.82402 115.27 9.33601 115.766 8.95201C116.278 8.55201 116.846 8.25601 117.47 8.06401C118.094 7.85601 118.734 7.75201 119.39 7.75201C120.062 7.75201 120.638 7.83201 121.118 7.99201C121.598 8.15201 122.062 8.40802 122.51 8.76002C122.702 8.90402 122.862 9.01602 122.99 9.09601C123.118 9.16001 123.222 9.19201 123.302 9.19201C123.526 9.19201 123.79 8.76801 124.094 7.92001H124.574Z" fill="#FFF9F4"/>
<path d="M97.3608 25.3527C96.0995 25.3527 95.0114 25.0743 94.0966 24.5175C93.1875 23.955 92.4858 23.1709 91.9915 22.1652C91.5029 21.1539 91.2585 19.9777 91.2585 18.6368C91.2585 17.2959 91.5029 16.1141 91.9915 15.0914C92.4858 14.063 93.1733 13.2618 94.054 12.688C94.9404 12.1084 95.9745 11.8186 97.1563 11.8186C97.8381 11.8186 98.5114 11.9323 99.1762 12.1595C99.8409 12.3868 100.446 12.7561 100.992 13.2675C101.537 13.7732 101.972 14.4436 102.295 15.2789C102.619 16.1141 102.781 17.1425 102.781 18.3641V19.2164H92.6904V17.4777H100.736C100.736 16.7391 100.588 16.08 100.293 15.5005C100.003 14.9209 99.5881 14.4635 99.0483 14.1283C98.5142 13.7931 97.8835 13.6255 97.1563 13.6255C96.3551 13.6255 95.662 13.8243 95.0767 14.222C94.4972 14.6141 94.0512 15.1255 93.7387 15.7561C93.4262 16.3868 93.2699 17.063 93.2699 17.7845V18.9436C93.2699 19.9323 93.4404 20.7703 93.7813 21.4578C94.1279 22.1397 94.608 22.6595 95.2216 23.0175C95.8353 23.3698 96.5483 23.5459 97.3608 23.5459C97.8892 23.5459 98.3665 23.472 98.7926 23.3243C99.2245 23.1709 99.5966 22.9436 99.9091 22.6425C100.222 22.3357 100.463 21.955 100.634 21.5005L102.577 22.0459C102.372 22.705 102.028 23.2845 101.545 23.7845C101.063 24.2789 100.466 24.6652 99.7557 24.9436C99.0455 25.2164 98.2472 25.3527 97.3608 25.3527Z" fill="#FFF9F4"/>
<path d="M86.1769 25.08V11.9891H88.1883V25.08H86.1769ZM87.1996 9.80726C86.8076 9.80726 86.4695 9.67374 86.1854 9.40669C85.907 9.13965 85.7678 8.81862 85.7678 8.44362C85.7678 8.06862 85.907 7.7476 86.1854 7.48055C86.4695 7.21351 86.8076 7.07999 87.1996 7.07999C87.5917 7.07999 87.9269 7.21351 88.2053 7.48055C88.4894 7.7476 88.6315 8.06862 88.6315 8.44362C88.6315 8.81862 88.4894 9.13965 88.2053 9.40669C87.9269 9.67374 87.5917 9.80726 87.1996 9.80726Z" fill="#FFF9F4"/>
<path d="M74.0087 17.205V25.08H71.9973V7.62546H74.0087V14.0345H74.1791C74.486 13.3584 74.9462 12.8215 75.5598 12.4238C76.1791 12.0203 77.003 11.8186 78.0314 11.8186C78.9235 11.8186 79.7047 11.9976 80.3752 12.3556C81.0456 12.7078 81.5655 13.2505 81.9348 13.9834C82.3098 14.7107 82.4973 15.6368 82.4973 16.7618V25.08H80.486V16.8982C80.486 15.8584 80.2161 15.0544 79.6763 14.4863C79.1422 13.9124 78.4007 13.6255 77.4519 13.6255C76.7928 13.6255 76.2019 13.7647 75.6791 14.0431C75.1621 14.3215 74.753 14.7277 74.4519 15.2618C74.1564 15.7959 74.0087 16.4436 74.0087 17.205Z" fill="#FFF9F4"/>
<path d="M63.9091 25.3527C62.6818 25.3527 61.625 25.063 60.7387 24.4834C59.8523 23.9039 59.1705 23.1056 58.6932 22.0885C58.2159 21.0715 57.9773 19.9095 57.9773 18.6027C57.9773 17.2732 58.2216 16.0999 58.7103 15.0828C59.2046 14.0601 59.8921 13.2618 60.7728 12.688C61.6591 12.1084 62.6932 11.8186 63.875 11.8186C64.7955 11.8186 65.625 11.9891 66.3637 12.33C67.1023 12.6709 67.7074 13.1482 68.179 13.7618C68.6506 14.3755 68.9432 15.0914 69.0568 15.9095H67.0455C66.8921 15.313 66.5512 14.7845 66.0228 14.3243C65.5 13.8584 64.7955 13.6255 63.9091 13.6255C63.125 13.6255 62.4375 13.83 61.8466 14.2391C61.2614 14.6425 60.804 15.2135 60.4745 15.9522C60.1506 16.6851 59.9887 17.5459 59.9887 18.5345C59.9887 19.5459 60.1478 20.4266 60.4659 21.1766C60.7898 21.9266 61.2443 22.509 61.8296 22.9237C62.4205 23.3385 63.1137 23.5459 63.9091 23.5459C64.4318 23.5459 64.9063 23.455 65.3324 23.2732C65.7585 23.0914 66.1193 22.83 66.4148 22.4891C66.7102 22.1482 66.9205 21.7391 67.0455 21.2618H69.0568C68.9432 22.0345 68.662 22.7306 68.2131 23.3499C67.7699 23.9635 67.1818 24.4522 66.4489 24.8158C65.7216 25.1737 64.875 25.3527 63.9091 25.3527Z" fill="#FFF9F4"/>
<path d="M50.0598 25.08V11.9891H52.003V13.9664H52.1394C52.378 13.3186 52.8098 12.7931 53.4348 12.3897C54.0598 11.9863 54.7644 11.7845 55.5485 11.7845C55.6962 11.7845 55.8808 11.7874 56.1024 11.7931C56.324 11.7988 56.4916 11.8073 56.6053 11.8186V13.8641C56.5371 13.847 56.3808 13.8215 56.1365 13.7874C55.8979 13.7476 55.645 13.7277 55.378 13.7277C54.7416 13.7277 54.1735 13.8613 53.6735 14.1283C53.1791 14.3897 52.7871 14.7533 52.4973 15.2192C52.2132 15.6794 52.0712 16.205 52.0712 16.7959V25.08H50.0598Z" fill="#FFF9F4"/>
<path d="M34.8297 25.08H32.6138L39.0229 7.62546H41.2047L47.6138 25.08H45.3979L40.182 10.3868H40.0456L34.8297 25.08ZM35.6479 18.2618H44.5797V20.1368H35.6479V18.2618Z" fill="#FFF9F4"/>
</svg>
